<svg xmlns="http://www.w3.org/2000/svg" data-name="Layer 1" width="825.80315" height="467" viewBox="0 0 825.80315 467" xmlns:xlink="http://www.w3.org/1999/xlink">
  <path d="M987.78048,246.5H975.65939v-1h12.12109Zm-24.24243,0H951.417v-1h12.12109Zm-24.24243,0h-12.1211v-1h12.1211Zm-24.24243,0h-12.1211v-1h12.1211Zm-24.24244,0H878.68966v-1h12.12109Zm-24.24243,0H854.44723v-1h12.12109Zm-24.24243,0H830.2048v-1h12.12109Zm-24.24243,0H805.96237v-1h12.12109Zm-24.24243,0h-12.1211v-1H793.841Zm-24.24243,0H757.4775v-1h12.1211Zm-24.24244,0H733.23507v-1h12.12109Zm-24.24243,0H708.99264v-1h12.12109Zm-24.24243,0H684.75021v-1H696.8713Zm-24.24243,0H660.50753v-1h12.12134Zm-24.24243,0h-12.1211v-1h12.1211Zm-24.24243,0H612.02267v-1H624.144Z" transform="translate(-187.09843 -216.5)" fill="#e6e6e6"/>
  <rect x="406.80315" y="29" width="6" height="1" fill="#e6e6e6"/>
  <rect x="615.80315" y="122" width="6" height="1" fill="#e6e6e6"/>
  <path d="M790.96017,339.5H779.019v-1h11.94116Zm-23.88233,0H755.13668v-1h11.94116Zm-23.88232,0H731.25436v-1h11.94116Zm-23.88232,0H707.372v-1H719.3132Zm-23.88233,0h-11.9414v-1h11.9414Zm-23.88257,0H659.60714v-1H671.5483Zm-23.88232,0H635.72482v-1H647.666Zm-23.88233,0H611.84249v-1h11.94116Z" transform="translate(-187.09843 -216.5)" fill="#e6e6e6"/>
  <rect x="406.80315" y="122" width="6" height="1" fill="#e6e6e6"/><rect x="498.80315" y="166" width="6" height="1" fill="#e6e6e6"/>
  <path d="M673.61593,383.5H661.33029v-1h12.28564Zm-24.57153,0H636.75875v-1H649.0444Zm-24.57129,0H612.18746v-1h12.28565Z" transform="translate(-187.09843 -216.5)" fill="#e6e6e6"/>
  <rect x="406.80315" y="166" width="6" height="1" fill="#e6e6e6"/>
  <path d="M1006.0715,256.51V427.77a32.53759,32.53759,0,0,1-32.5,32.5h-348a32.3954,32.3954,0,0,1-24.16993-10.8v-1.53a31.40764,31.40764,0,0,0,23.97022,11.33l60.18994-60.19a8.49808,8.49808,0,0,1,12.02,0l31.98975,31.98,74.99023-74.98a8.49808,8.49808,0,0,1,12.02,0l43.98975,43.98,143.51025-143.5.98975-.03.46-.01Z" transform="translate(-187.09843 -216.5)" fill="#1597E5"/>
  <path d="M626.25509,460.35352l-.707-.707,60.34326-60.34326a8.50871,8.50871,0,0,1,12.02051,0L729.90157,431.293l74.98975-74.98975a8.50871,8.50871,0,0,1,12.02051,0L860.90157,400.293l144.64649-144.64649.707.707L860.90157,401.707,816.2048,357.01025a7.49965,7.49965,0,0,0-10.60645,0L729.90157,432.707,697.2048,400.01025a7.50909,7.50909,0,0,0-10.60645,0Z" transform="translate(-187.09843 -216.5)" fill="#3f3d56"/>
</svg>